<?xml version="1.0" encoding="iso-8859-1"?>
<!-- Generator: Adobe Illustrator 19.0.0, SVG Export Plug-In . SVG Version: 6.00 Build 0)  -->
<svg xmlns="http://www.w3.org/2000/svg" xmlns:xlink="http://www.w3.org/1999/xlink" version="1.1" id="Layer_1" x="0px" y="0px" viewBox="0 0 512.001 512.001" style="enable-background:new 0 0 512.001 512.001;" xml:space="preserve" width="512px" height="512px">
<g>
	<g>
		<g>
			<path d="M398.815,323.35c-32.83,0-62.688,16.69-79.835,44.071c-13.989-8.37-21.365-14.022-25.239-17.694v-26.213     c32.68-18.787,55.046-52.405,62.205-93.531c18.607-5.311,34.799-22.685,34.799-38.652c0-16.221-12.185-26.993-32.334-29.225     v-19.129c0.158-4.58,1.563-67.652-37.994-108.823C298.641,11.49,268.81,0,231.75,0c-37.158,0-67.044,11.514-88.826,34.221     c-39.481,41.157-38.001,104.123-37.834,108.761v19.124c-20.151,2.232-32.335,13.004-32.335,29.225     c0,15.967,16.194,33.339,34.799,38.652c7.162,41.134,29.533,74.756,62.206,93.533v26.19     c-10.217,9.641-33.937,23.08-43.552,28.145c-105.062,34.093-107.3,96.338-107.343,98.975l-0.001,35.177h385.341v-0.158     c49.514-2.804,88.936-43.966,88.936-94.168C493.139,365.664,450.826,323.35,398.815,323.35z M154.681,45.36     c18.604-19.352,44.534-29.164,77.069-29.164c32.442,0,58.322,9.793,76.918,29.107c27.707,28.774,32.611,71.659,33.422,89.244     c-69.063-2.924-132.388-41.328-133.042-41.73l-5.447-3.351l-4.523,4.523c-33.19,33.19-63.757,42.509-77.815,45.119     C121.43,125.901,124.183,77.083,154.681,45.36z M122.718,222.127l-0.841-6.092l-6.094-0.826     c-11.717-1.587-26.833-13.452-26.833-23.879c0-12.488,18.552-13.459,24.237-13.459h8.098v-22.304     c14.834-2.216,48.104-10.995,84.763-45.763c17.497,9.814,73.822,38.598,136.169,40.961l-0.005,27.105h8.098     c5.686,0,24.236,0.971,24.236,13.459c0,10.427-15.116,22.292-26.833,23.879l-6.094,0.826l-0.841,6.092     c-5.558,40.254-27.019,72.846-58.86,89.411c-15.155,7.839-32.035,11.813-50.172,11.813c-18.337,0-35.203-3.968-50.155-11.805     C149.737,294.972,128.277,262.38,122.718,222.127z M277.544,331.229v18.656c-5.531,5.782-23.048,21.968-45.794,21.968     c-22.598,0-40.237-16.217-45.794-21.984v-18.596c14.14,5.487,29.485,8.273,45.794,8.273     C247.93,339.546,263.273,336.746,277.544,331.229z M35.058,495.805v-0.001v-18.698c0.052-0.944,0.973-13.938,12.483-30.19     c20.263-28.612,57.025-45.086,84.297-53.867l0.655-0.211l0.61-0.319c3.354-1.75,29.401-15.506,44.481-28.135     c9.324,8.777,28.869,23.665,54.166,23.665c25.276,0,44.811-14.866,54.143-23.645c6.004,5.039,14.511,10.818,25.671,17.453     c-4.695,11.431-7.076,23.445-7.076,35.818c0,32.466,16.488,61.153,41.531,78.129H35.058z M398.814,495.804     c-43.081,0-78.129-35.049-78.129-78.129c0-12.349,2.861-24.281,8.505-35.468c13.364-26.314,40.041-42.662,69.624-42.662     c43.08,0,78.128,35.049,78.128,78.129S441.895,495.804,398.814,495.804z" fill="#0c6d3a"/>
			<polygon points="406.912,363.783 390.716,363.783 390.716,409.577 344.922,409.577 344.922,425.773 390.716,425.773      390.716,471.567 406.912,471.567 406.912,425.773 452.705,425.773 452.705,409.577 406.912,409.577    " fill="#0c6d3a"/>
		</g>
	</g>
</g>
<g>
</g>
<g>
</g>
<g>
</g>
<g>
</g>
<g>
</g>
<g>
</g>
<g>
</g>
<g>
</g>
<g>
</g>
<g>
</g>
<g>
</g>
<g>
</g>
<g>
</g>
<g>
</g>
<g>
</g>
</svg>
