<?xml version="1.0" encoding="iso-8859-1"?>
<!-- Generator: Adobe Illustrator 19.0.0, SVG Export Plug-In . SVG Version: 6.00 Build 0)  -->
<svg xmlns="http://www.w3.org/2000/svg" xmlns:xlink="http://www.w3.org/1999/xlink" version="1.1" id="Capa_1" x="0px" y="0px" viewBox="0 0 512 512" style="enable-background:new 0 0 512 512;" xml:space="preserve" width="512px" height="512px">
<g>
	<g>
		<path d="M81.455,311.273C36.469,311.273,0,347.741,0,392.727s36.469,81.455,81.455,81.455s81.455-36.469,81.455-81.455    S126.44,311.273,81.455,311.273z M81.455,456.728c-35.287,0-64-28.712-64-64s28.712-64,64-64s64,28.712,64,64    C145.454,428.014,116.742,456.728,81.455,456.728z" fill="#0c6d3a"/>
	</g>
</g>
<g>
	<g>
		<path d="M256,346.181c-44.986,0-81.454,36.469-81.454,81.455c0,44.986,36.469,81.454,81.454,81.454    c44.986,0,81.455-36.469,81.455-81.454C337.455,382.65,300.986,346.181,256,346.181z M256,491.637c-35.287,0-64-28.712-64-64    c0-35.287,28.712-64,64-64c35.287,0,64,28.712,64,64C320,462.924,291.288,491.637,256,491.637z" fill="#0c6d3a"/>
	</g>
</g>
<g>
	<g>
		<path d="M256,2.909c-77.125,0-139.637,62.521-139.637,139.636c0,77.125,62.511,139.636,139.637,139.636    s139.636-62.511,139.636-139.636C395.637,65.432,333.126,2.909,256,2.909z M256,264.728c-67.375,0-122.182-54.814-122.182-122.182    c0-67.368,54.807-122.182,122.182-122.182c67.374,0,122.182,54.813,122.182,122.182C378.183,209.915,323.376,264.728,256,264.728z    " fill="#0c6d3a"/>
	</g>
</g>
<g>
	<g>
		<path d="M430.545,311.273c-44.986,0-81.455,36.469-81.455,81.454s36.469,81.455,81.455,81.455    c44.986,0,81.454-36.469,81.454-81.455S475.531,311.273,430.545,311.273z M430.545,456.728c-35.287,0-64-28.712-64-64    s28.712-64,64-64c35.287,0,64,28.712,64,64C494.545,428.014,465.833,456.728,430.545,456.728z" fill="#0c6d3a"/>
	</g>
</g>
<g>
	<g>
		<path d="M286.93,134.213c10.043-8.68,16.419-21.481,16.419-35.8C303.343,72.267,282.154,51.077,256,51.072    c-26.153,0.006-47.342,21.196-47.349,47.342c0,14.319,6.382,27.118,16.419,35.8c-27.816,11.165-47.308,37.195-47.313,69.422    c0,2.298,0.93,4.544,2.554,6.173c1.623,1.63,3.875,2.554,6.179,2.554h139.026c2.298,0,4.544-0.93,6.173-2.554    c1.629-1.624,2.554-3.874,2.554-6.173C334.237,171.409,314.747,145.378,286.93,134.213z M234.862,77.283    c5.434-5.428,12.853-8.75,21.137-8.757c8.279,0.006,15.698,3.328,21.137,8.757c5.423,5.44,8.75,12.853,8.757,21.132    c-0.006,8.285-3.334,15.698-8.757,21.137c-5.44,5.428-12.858,8.75-21.137,8.757c-8.284-0.006-15.703-3.334-21.137-8.757    c-5.423-5.44-8.75-12.853-8.757-21.137C226.112,90.136,229.44,82.724,234.862,77.283z M195.957,194.908    c1.96-12.467,8.057-22.33,17.064-31.348c11.025-11.014,26.165-17.798,42.979-17.804c16.809,0.006,31.953,6.79,42.979,17.804    c9.007,9.018,15.11,18.88,17.07,31.348H195.957z" fill="#0c6d3a"/>
	</g>
</g>
<g>
	<g>
		<circle cx="256.346" cy="328.785" r="8.727" fill="#0c6d3a"/>
	</g>
</g>
<g>
	<g>
		<circle cx="256.346" cy="299.69" r="8.727" fill="#0c6d3a"/>
	</g>
</g>
<g>
	<g>
		<circle cx="378.036" cy="314.337" r="8.727" fill="#0c6d3a"/>
	</g>
</g>
<g>
	<g>
		<circle cx="359.333" cy="292.048" r="8.727" fill="#0c6d3a"/>
	</g>
</g>
<g>
	<g>
		<circle cx="340.641" cy="269.769" r="8.727" fill="#0c6d3a"/>
	</g>
</g>
<g>
	<g>
		<circle cx="134.592" cy="315.006" r="8.727" fill="#0c6d3a"/>
	</g>
</g>
<g>
	<g>
		<circle cx="153.285" cy="292.727" r="8.727" fill="#0c6d3a"/>
	</g>
</g>
<g>
	<g>
		<circle cx="171.988" cy="270.438" r="8.727" fill="#0c6d3a"/>
	</g>
</g>
<g>
	<g>
		<path d="M472.035,411.398c-2.758-8.186-8.489-14.942-15.762-19.607c-0.966-0.617-2.042-1.105-3.055-1.658    c3.264-4.573,5.225-10.129,5.23-16.18c-0.006-15.441-12.515-27.945-27.95-27.95c-15.441,0.006-27.945,12.509-27.95,27.95    c0.006,6.045,1.973,11.608,5.23,16.18c-1.023,0.553-2.089,1.041-3.055,1.658c-7.273,4.666-13.01,11.421-15.773,19.608    c-1.536,4.568,0.919,9.519,5.487,11.055c4.568,1.536,9.519-0.919,11.055-5.487c1.315-3.928,4.276-7.675,8.657-10.49    c4.357-2.799,10.043-4.584,16.344-4.579c6.301-0.006,11.985,1.78,16.344,4.579c4.381,2.81,7.348,6.563,8.657,10.49    c1.542,4.568,6.487,7.022,11.055,5.487C471.116,420.91,473.571,415.966,472.035,411.398z M430.499,384.442    c-5.795-0.011-10.485-4.713-10.496-10.496c0.011-5.801,4.701-10.485,10.496-10.496c5.789,0.011,10.485,4.701,10.496,10.496    C440.983,379.735,436.282,384.43,430.499,384.442z" fill="#0c6d3a"/>
	</g>
</g>
<g>
	<g>
		<path d="M297.671,446.307c-2.754-8.186-8.49-14.941-15.763-19.607c-0.971-0.617-2.042-1.105-3.06-1.658    c3.27-4.573,5.23-10.129,5.237-16.18c-0.006-15.441-12.515-27.945-27.95-27.95c-15.441,0.006-27.95,12.509-27.95,27.95    c0,6.045,1.973,11.608,5.23,16.181c-1.023,0.553-2.089,1.041-3.055,1.658c-7.273,4.666-13.01,11.421-15.773,19.607    c-1.536,4.568,0.919,9.519,5.487,11.055c4.568,1.536,9.519-0.919,11.055-5.487c1.315-3.928,4.276-7.675,8.657-10.49    c4.357-2.799,10.043-4.584,16.344-4.579c6.301-0.006,11.985,1.78,16.344,4.579c4.382,2.81,7.349,6.563,8.657,10.49    c1.542,4.568,6.487,7.022,11.055,5.487C296.752,455.819,299.207,450.874,297.671,446.307z M256.134,419.352    c-5.795-0.011-10.485-4.713-10.496-10.496c0.011-5.801,4.701-10.485,10.496-10.496c5.789,0.011,10.485,4.701,10.496,10.496    C266.618,414.644,261.923,419.339,256.134,419.352z" fill="#0c6d3a"/>
	</g>
</g>
<g>
	<g>
		<path d="M123.126,411.398c-2.754-8.186-8.491-14.942-15.763-19.607c-0.971-0.617-2.042-1.105-3.06-1.658    c3.27-4.573,5.23-10.129,5.237-16.18c-0.006-15.441-12.515-27.945-27.95-27.95c-15.441,0.006-27.95,12.509-27.95,27.95    c0,6.045,1.973,11.608,5.23,16.18c-1.023,0.553-2.089,1.041-3.055,1.658c-7.273,4.666-13.01,11.421-15.773,19.608    c-1.536,4.568,0.919,9.519,5.487,11.055c4.568,1.536,9.519-0.919,11.055-5.487c1.315-3.928,4.276-7.675,8.657-10.49    c4.357-2.799,10.043-4.584,16.344-4.579c6.301-0.006,11.985,1.78,16.344,4.579c4.381,2.81,7.348,6.563,8.657,10.49    c1.542,4.568,6.487,7.022,11.055,5.487C122.207,420.91,124.662,415.966,123.126,411.398z M81.588,384.442    c-5.795-0.011-10.485-4.713-10.496-10.496c0.011-5.801,4.701-10.485,10.496-10.496c5.789,0.011,10.485,4.701,10.496,10.496    C92.073,379.735,87.377,384.43,81.588,384.442z" fill="#0c6d3a"/>
	</g>
</g>
<g>
</g>
<g>
</g>
<g>
</g>
<g>
</g>
<g>
</g>
<g>
</g>
<g>
</g>
<g>
</g>
<g>
</g>
<g>
</g>
<g>
</g>
<g>
</g>
<g>
</g>
<g>
</g>
<g>
</g>
</svg>
