<?xml version="1.0" encoding="iso-8859-1"?>
<!-- Generator: Adobe Illustrator 19.0.0, SVG Export Plug-In . SVG Version: 6.00 Build 0)  -->
<svg xmlns="http://www.w3.org/2000/svg" xmlns:xlink="http://www.w3.org/1999/xlink" version="1.1" id="Layer_1" x="0px" y="0px" viewBox="0 0 512 512" style="enable-background:new 0 0 512 512;" xml:space="preserve" width="512px" height="512px">
<g>
	<g>
		<path d="M476.435,220.435c-16.139,0-29.793,10.809-34.125,25.565h-48.622c-2.198-30.556-14.38-58.392-33.299-80.246l34.412-34.412    c5.174,2.839,11.004,4.353,17.07,4.353c9.5,0,18.431-3.699,25.149-10.417c6.717-6.718,10.417-15.649,10.417-25.149    s-3.699-18.431-10.417-25.149c-6.718-6.717-15.649-10.417-25.149-10.417s-18.431,3.699-25.149,10.417    c-6.717,6.718-10.417,15.649-10.417,25.149c0,6.066,1.515,11.896,4.354,17.07l-34.412,34.412    c-21.855-18.919-49.69-31.101-80.246-33.299V69.69c14.757-4.332,25.566-17.986,25.566-34.125C291.566,15.955,275.611,0,256,0    c-19.611,0-35.565,15.955-35.565,35.565c0,16.139,10.809,29.793,25.565,34.125v48.622c-30.556,2.198-58.392,14.38-80.246,33.299    l-34.412-34.412c2.839-5.174,4.353-11.004,4.353-17.07c0-9.5-3.699-18.431-10.417-25.149    c-6.718-6.717-15.649-10.417-25.149-10.417s-18.431,3.7-25.149,10.417c-6.717,6.718-10.417,15.649-10.417,25.149    s3.699,18.431,10.417,25.149c6.718,6.717,15.649,10.417,25.149,10.417c6.066,0,11.896-1.514,17.07-4.353l34.412,34.412    c-18.919,21.854-31.101,49.69-33.299,80.246H69.69c-4.332-14.756-17.986-25.565-34.125-25.565C15.955,220.435,0,236.389,0,256    c0,19.611,15.955,35.565,35.565,35.565c16.139,0,29.793-10.809,34.125-25.565h48.622c2.198,30.556,14.38,58.392,33.299,80.246    l-34.423,34.423c-13.497-7.371-30.796-5.361-42.207,6.052c-13.866,13.867-13.866,36.431,0,50.298    c6.717,6.718,15.649,10.417,25.149,10.417s18.432-3.699,25.149-10.417c11.411-11.412,13.422-28.71,6.052-42.207l34.424-34.424    c21.855,18.919,49.69,31.101,80.246,33.299v48.622c-14.756,4.332-25.565,17.985-25.565,34.125    C220.435,496.046,236.389,512,256,512c19.611,0,35.566-15.954,35.566-35.565c0-16.139-10.809-29.793-25.566-34.125v-48.622    c28.202-2.029,54.086-12.562,75.089-29.048c0.588-0.38,1.13-0.815,1.619-1.301c1.194-0.966,2.377-1.945,3.538-2.95l34.423,34.423    c-7.371,13.498-5.359,30.795,6.052,42.207c6.717,6.718,15.649,10.417,25.149,10.417s18.432-3.699,25.149-10.417    c13.866-13.867,13.866-36.431,0-50.298c-11.411-11.411-28.709-13.423-42.207-6.052l-34.423-34.423    c18.919-21.855,31.101-49.69,33.299-80.246h48.622c4.332,14.756,17.986,25.565,34.125,25.565c19.61,0,35.565-15.954,35.565-35.565    C512,236.389,496.045,220.435,476.435,220.435z M400.864,89.123c3.034-3.035,7.021-4.552,11.006-4.552    c3.985,0,7.972,1.518,11.006,4.552c6.069,6.069,6.069,15.944,0,22.013c-2.939,2.94-6.849,4.559-11.006,4.559    c-4.156,0-8.064-1.618-11.004-4.557c-0.001-0.001-0.001-0.002-0.002-0.002c-0.001-0.001-0.002-0.002-0.003-0.002    c-2.938-2.94-4.557-6.847-4.557-11.004C396.305,95.972,397.924,92.063,400.864,89.123z M111.135,111.136    c-6.068,6.069-15.944,6.069-22.012,0c-6.069-6.069-6.069-15.944,0-22.013c3.034-3.035,7.021-4.552,11.006-4.552    c3.985,0,7.972,1.518,11.006,4.552C117.204,95.192,117.204,105.067,111.135,111.136z M35.565,271.565    C26.982,271.565,20,264.583,20,256s6.982-15.565,15.565-15.565S51.131,247.417,51.131,256S44.148,271.565,35.565,271.565z     M111.136,422.877c-2.94,2.94-6.849,4.56-11.006,4.56s-8.066-1.619-11.006-4.56c-6.069-6.068-6.069-15.944,0-22.013    c3.034-3.035,7.02-4.552,11.006-4.552s7.972,1.517,11.006,4.552C117.205,406.933,117.205,416.809,111.136,422.877z     M400.862,400.867c0.001-0.001,0.002-0.002,0.003-0.002c0.001-0.001,0.001-0.002,0.002-0.002    c3.035-3.033,7.019-4.549,11.005-4.549c3.984-0.001,7.971,1.516,11.005,4.55c6.069,6.068,6.069,15.944,0,22.013    c-2.94,2.94-6.849,4.56-11.006,4.56c-4.157,0-8.066-1.619-11.006-4.56C394.797,416.809,394.796,406.935,400.862,400.867z     M240.435,35.565C240.435,26.982,247.417,20,256,20s15.566,6.982,15.566,15.565S264.583,51.131,256,51.131    S240.435,44.148,240.435,35.565z M271.566,476.435c0,8.583-6.983,15.565-15.566,15.565s-15.565-6.982-15.565-15.565    S247.417,460.87,256,460.87S271.566,467.852,271.566,476.435z M340.348,338.504c-5.799-13.373-14.927-25.329-26.62-34.589    c-7.804-6.18-16.596-11.01-25.945-14.378C296.26,280.882,301.5,269.044,301.5,256c0-26.448-21.517-47.965-47.965-47.965    S205.57,229.552,205.57,256c0,13.734,5.811,26.128,15.092,34.88c-9.031,3.678-17.47,8.761-24.951,15.141    c-4.202,3.583-4.704,9.896-1.12,14.098c3.584,4.202,9.895,4.705,14.098,1.119C221.75,310.1,238.552,303.965,256,303.965    c31.269,0,58.976,19.98,68.226,48.326c-19.278,13.699-42.828,21.762-68.226,21.762c-65.095,0-118.053-52.958-118.053-118.053    S190.905,137.947,256,137.947S374.053,190.905,374.053,256C374.053,288.079,361.185,317.206,340.348,338.504z M281.5,256    c0,15.42-12.545,27.965-27.965,27.965c-15.42,0-27.965-12.545-27.965-27.965s12.545-27.965,27.965-27.965    C268.955,228.035,281.5,240.58,281.5,256z M476.435,271.565c-8.583,0-15.566-6.982-15.566-15.565s6.983-15.565,15.566-15.565    S492,247.417,492,256S485.018,271.565,476.435,271.565z" fill="#0c6d3a"/>
	</g>
</g>
<g>
	<g>
		<circle cx="185.5" cy="331.7" r="10" fill="#0c6d3a"/>
	</g>
</g>
<g>
</g>
<g>
</g>
<g>
</g>
<g>
</g>
<g>
</g>
<g>
</g>
<g>
</g>
<g>
</g>
<g>
</g>
<g>
</g>
<g>
</g>
<g>
</g>
<g>
</g>
<g>
</g>
<g>
</g>
</svg>
